<?xml version="1.0" encoding="iso-8859-1"?>
<!-- Generator: Adobe Illustrator 19.0.0, SVG Export Plug-In . SVG Version: 6.00 Build 0)  -->
<svg version="1.1" id="Capa_1" xmlns="http://www.w3.org/2000/svg" xmlns:xlink="http://www.w3.org/1999/xlink" x="0px" y="0px"
	 viewBox="0 0 374.073 374.073" style="enable-background:new 0 0 374.073 374.073;" xml:space="preserve">
<g>
	<g>
		<circle style="fill:#00EFD1;" cx="40.751" cy="40.751" r="40.751"/>
		<circle style="fill:#00EFD1;" cx="40.751" cy="187.037" r="40.751"/>
		<circle style="fill:#00EFD1;" cx="40.751" cy="333.322" r="40.751"/>
	</g>
	<g>
		<path style="fill:#00ACEA;" d="M363.625,197.486H127.478c-5.771,0-10.449-4.678-10.449-10.449c0-5.771,4.678-10.449,10.449-10.449
			h236.147c5.771,0,10.449,4.678,10.449,10.449C374.073,192.808,369.395,197.486,363.625,197.486z"/>
		<path style="fill:#00ACEA;" d="M363.625,51.2H127.478c-5.771,0-10.449-4.678-10.449-10.449s4.678-10.449,10.449-10.449h236.147
			c5.771,0,10.449,4.678,10.449,10.449S369.395,51.2,363.625,51.2z"/>
		<path style="fill:#00ACEA;" d="M363.625,343.771H127.478c-5.771,0-10.449-4.678-10.449-10.449s4.678-10.449,10.449-10.449h236.147
			c5.771,0,10.449,4.678,10.449,10.449S369.395,343.771,363.625,343.771z"/>
	</g>
</g>
<g>
</g>
<g>
</g>
<g>
</g>
<g>
</g>
<g>
</g>
<g>
</g>
<g>
</g>
<g>
</g>
<g>
</g>
<g>
</g>
<g>
</g>
<g>
</g>
<g>
</g>
<g>
</g>
<g>
</g>
</svg>
